<?xml version="1.0" standalone="no"?>
<!DOCTYPE svg PUBLIC "-//W3C//DTD SVG 20010904//EN"
 "http://www.w3.org/TR/2001/REC-SVG-20010904/DTD/svg10.dtd">
<svg version="1.0" xmlns="http://www.w3.org/2000/svg"
 width="700.000000pt" height="700.000000pt" viewBox="0 0 700.000000 700.000000"
 preserveAspectRatio="xMidYMid meet">
<metadata>
Created by potrace 1.11, written by Peter Selinger 2001-2013
</metadata>
<g transform="translate(0.000000,700.000000) scale(0.100000,-0.100000)"
fill="#000000" stroke="none">
<path d="M1938 4845 c-2 -1 -34 -5 -73 -9 -407 -38 -762 -204 -1027 -481 -185
-192 -319 -452 -379 -738 -29 -132 -36 -441 -13 -557 66 -345 246 -594 554
-767 186 -105 482 -170 760 -167 272 3 470 51 870 210 47 18 91 35 99 36 15 3
15 1 25 -87 4 -33 9 -73 11 -90 2 -16 5 -47 7 -67 l2 -38 145 0 c393 -2 546 1
552 7 3 5 37 67 74 138 38 72 80 153 95 180 35 64 132 248 208 394 l60 114
161 82 c89 45 161 77 162 71 0 -6 2 -20 4 -31 3 -11 7 -42 11 -70 3 -27 7 -61
9 -75 2 -14 7 -53 10 -88 4 -35 8 -71 10 -80 3 -21 13 -100 20 -167 3 -27 7
-61 10 -75 2 -14 7 -52 10 -85 3 -33 8 -73 10 -90 2 -16 7 -51 10 -77 10 -88
17 -143 19 -145 6 -7 680 -3 687 4 4 4 28 49 54 98 52 98 132 251 217 415 31
58 81 155 113 215 121 231 179 343 225 430 26 50 73 140 105 200 32 61 79 151
105 200 102 193 188 357 304 580 21 41 46 65 122 120 283 206 531 402 521 411
-2 3 -142 5 -310 5 l-306 0 -78 -59 c-97 -74 -213 -151 -418 -279 -135 -84
-200 -124 -365 -223 -102 -61 -406 -235 -542 -309 l-78 -42 -1 40 c-1 23 -2
44 -3 49 -1 4 -6 41 -10 82 -4 41 -9 86 -11 100 -2 14 -6 52 -9 85 -4 33 -9
77 -12 98 l-6 37 -296 0 -297 0 -63 -122 c-35 -68 -67 -130 -72 -138 -9 -13
-144 -270 -330 -625 -101 -193 -120 -224 -143 -231 -12 -4 -54 -22 -94 -40
-84 -39 -92 -40 -91 -16 1 9 -2 33 -5 52 -3 19 -13 98 -22 175 -8 77 -20 172
-25 210 -5 39 -12 91 -15 118 -8 74 -16 140 -20 167 -2 14 -6 50 -10 80 -6 57
-12 104 -20 168 -2 20 -9 77 -15 125 -10 81 -15 94 -52 145 -161 219 -437 365
-778 413 -72 10 -364 21 -372 14z m287 -640 c130 -36 313 -164 320 -225 7 -57
15 -121 20 -152 2 -18 7 -55 10 -83 13 -119 19 -171 29 -245 6 -39 13 -101 22
-170 3 -25 7 -58 9 -75 5 -36 37 -298 37 -305 1 -19 -4 -28 -19 -33 -10 -3
-79 -24 -153 -47 -427 -131 -733 -163 -933 -98 -136 44 -263 148 -323 263 -96
184 -85 483 27 724 116 249 353 428 604 458 28 3 52 8 55 10 10 11 238 -7 295
-22z m2961 -627 c-24 -42 -54 -99 -261 -495 -112 -215 -105 -212 -119 -51 -3
37 -8 77 -10 90 -3 13 -7 48 -10 78 -3 30 -8 82 -11 115 -7 59 -6 61 22 75 15
8 72 40 125 72 54 32 99 58 102 58 2 0 43 25 92 55 48 30 89 53 91 51 3 -3 -7
-24 -21 -48z"/>
</g>
</svg>
